<svg width="301" height="301" viewBox="0 0 301 301" fill="none" xmlns="http://www.w3.org/2000/svg">
<path fill-rule="evenodd" clip-rule="evenodd" d="M284.82 291.833C283.087 293.167 281.22 294.333 279.22 295.333C277.22 296.333 275.087 297.167 272.82 297.833C270.553 298.5 268.153 299 265.62 299.333C263.087 299.667 260.42 299.9 257.62 300.033C254.82 300.1 251.953 300.033 249.02 299.833C246.02 299.7 242.92 299.433 239.72 299.033C236.52 298.7 233.253 298.233 229.92 297.633C226.587 297.1 223.153 296.467 219.62 295.733C216.153 295.067 212.62 294.3 209.02 293.433C205.353 292.633 201.653 291.767 197.92 290.833C194.187 289.967 190.42 289.033 186.62 288.033C182.82 287.033 178.987 286.033 175.12 285.033C171.253 284.033 167.353 283.033 163.42 282.033C159.553 281.033 155.653 280.067 151.72 279.133C147.787 278.2 143.853 277.233 139.92 276.233C135.987 275.3 132.087 274.367 128.22 273.433C124.353 272.5 120.487 271.567 116.62 270.633C112.753 269.7 108.953 268.733 105.22 267.733C101.42 266.733 97.6867 265.7 94.02 264.633C90.3533 263.567 86.7533 262.467 83.22 261.333C79.6867 260.2 76.1867 259 72.72 257.733C69.32 256.533 66.02 255.233 62.82 253.833C59.5533 252.433 56.3867 250.967 53.32 249.433C50.2533 247.9 47.2867 246.267 44.42 244.533C41.5533 242.867 38.82 241.067 36.22 239.133C33.62 237.2 31.12 235.167 28.72 233.033C26.3867 230.9 24.1533 228.667 22.02 226.333C19.9533 223.933 18.02 221.433 16.22 218.833C14.42 216.167 12.7867 213.367 11.32 210.433C9.85333 207.567 8.52 204.567 7.32 201.433C6.12 198.3 5.08667 195.067 4.22 191.733C3.35333 188.4 2.62 185 2.02 181.533C1.42 178 0.953333 174.433 0.62 170.833C0.286667 167.233 0.0866667 163.567 0.02 159.833C-0.0466667 156.167 0.0533333 152.433 0.32 148.633C0.52 144.9 0.853333 141.133 1.32 137.333C1.78667 133.533 2.38667 129.733 3.12 125.933C3.78667 122.2 4.62 118.467 5.62 114.733C6.55333 111 7.62 107.3 8.82 103.633C10.02 100.033 11.32 96.4667 12.72 92.9333C14.1867 89.4 15.72 85.9333 17.32 82.5333C18.9867 79.2 20.7533 75.9333 22.62 72.7333C24.4867 69.5333 26.42 66.4333 28.42 63.4333C30.4867 60.5 32.6533 57.6333 34.92 54.8333C37.1867 52.1 39.52 49.4333 41.92 46.8333C44.32 44.3 46.7867 41.8667 49.32 39.5333C51.92 37.2 54.5533 34.9667 57.22 32.8333C59.8867 30.7 62.62 28.6667 65.42 26.7333C68.22 24.8667 71.0867 23.0667 74.02 21.3333C76.8867 19.6 79.7867 18 82.72 16.5333C85.72 15 88.72 13.6 91.72 12.3333C94.7867 11 97.8533 9.8 100.92 8.73333C103.987 7.66667 107.053 6.7 110.12 5.83333C113.187 4.9 116.253 4.1 119.32 3.43333C122.453 2.76667 125.553 2.2 128.62 1.73333C131.687 1.26667 134.72 0.9 137.72 0.633333C140.787 0.366667 143.82 0.166667 146.82 0.0333333C149.753 -0.0333333 152.687 0 155.62 0.133333C158.553 0.266667 161.453 0.466667 164.32 0.733333C167.187 1.06667 170.02 1.46667 172.82 1.93333C175.553 2.46667 178.287 3.03333 181.02 3.63333C183.753 4.3 186.42 5.03333 189.02 5.83333C191.62 6.63333 194.187 7.53333 196.72 8.53333C199.253 9.46667 201.753 10.5 204.22 11.6333C206.62 12.7667 209.02 13.9333 211.42 15.1333C213.753 16.4 216.02 17.7333 218.22 19.1333C220.42 20.4667 222.587 21.9 224.72 23.4333C226.853 24.9 228.92 26.4667 230.92 28.1333C232.92 29.7333 234.853 31.3667 236.72 33.0333C238.587 34.7667 240.387 36.5333 242.12 38.3333C243.853 40.1333 245.52 42 247.12 43.9333C248.72 45.8 250.253 47.7333 251.72 49.7333C253.187 51.7333 254.587 53.7667 255.92 55.8333C257.253 57.9 258.52 60.0333 259.72 62.2333C260.987 64.3667 262.187 66.5667 263.32 68.8333C264.453 71.1 265.52 73.4333 266.52 75.8333C267.587 78.1667 268.587 80.5667 269.52 83.0333C270.453 85.5 271.387 88.0333 272.32 90.6333C273.187 93.2333 274.02 95.8667 274.82 98.5333C275.687 101.2 276.487 103.933 277.22 106.733C278.02 109.533 278.787 112.4 279.52 115.333C280.253 118.267 280.987 121.233 281.72 124.233C282.387 127.3 283.087 130.4 283.82 133.533C284.487 136.733 285.187 139.967 285.92 143.233C286.587 146.5 287.253 149.867 287.92 153.333C288.587 156.733 289.287 160.2 290.02 163.733C290.687 167.267 291.353 170.833 292.02 174.433C292.687 178.1 293.353 181.767 294.02 185.433C294.62 189.1 295.22 192.767 295.82 196.433C296.353 200.1 296.887 203.767 297.42 207.433C297.887 211.1 298.287 214.733 298.62 218.333C299.02 221.933 299.32 225.467 299.52 228.933C299.787 232.467 299.953 235.9 300.02 239.233C300.087 242.567 300.053 245.833 299.92 249.033C299.787 252.233 299.553 255.3 299.22 258.233C298.953 261.233 298.52 264.1 297.92 266.833C297.387 269.5 296.72 272.067 295.92 274.533C295.12 276.933 294.187 279.2 293.12 281.333C292.053 283.467 290.82 285.4 289.42 287.133C288.02 288.867 286.487 290.433 284.82 291.833Z" fill="black"/>
</svg>
