<svg width="302" height="302" viewBox="0 0 302 302" fill="none" xmlns="http://www.w3.org/2000/svg">
<path fill-rule="evenodd" clip-rule="evenodd" d="M285.82 292.833C284.087 294.167 282.22 295.333 280.22 296.333C278.22 297.333 276.087 298.167 273.82 298.833C271.553 299.5 269.153 300 266.62 300.333C264.087 300.667 261.42 300.9 258.62 301.033C255.82 301.1 252.953 301.033 250.02 300.833C247.02 300.7 243.92 300.433 240.72 300.033C237.52 299.7 234.253 299.233 230.92 298.633C227.587 298.1 224.153 297.467 220.62 296.733C217.153 296.067 213.62 295.3 210.02 294.433C206.353 293.633 202.653 292.767 198.92 291.833C195.187 290.967 191.42 290.033 187.62 289.033C183.82 288.033 179.987 287.033 176.12 286.033C172.253 285.033 168.353 284.033 164.42 283.033C160.553 282.033 156.653 281.067 152.72 280.133C148.787 279.2 144.853 278.233 140.92 277.233C136.987 276.3 133.087 275.367 129.22 274.433C125.353 273.5 121.487 272.567 117.62 271.633C113.753 270.7 109.953 269.733 106.22 268.733C102.42 267.733 98.6867 266.7 95.02 265.633C91.3533 264.567 87.7533 263.467 84.22 262.333C80.6867 261.2 77.1867 260 73.72 258.733C70.32 257.533 67.02 256.233 63.82 254.833C60.5533 253.433 57.3867 251.967 54.32 250.433C51.2533 248.9 48.2867 247.267 45.42 245.533C42.5533 243.867 39.82 242.067 37.22 240.133C34.62 238.2 32.12 236.167 29.72 234.033C27.3867 231.9 25.1533 229.667 23.02 227.333C20.9533 224.933 19.02 222.433 17.22 219.833C15.42 217.167 13.7867 214.367 12.32 211.433C10.8533 208.567 9.52 205.567 8.32 202.433C7.12 199.3 6.08667 196.067 5.22 192.733C4.35333 189.4 3.62 186 3.02 182.533C2.42 179 1.95333 175.433 1.62 171.833C1.28667 168.233 1.08667 164.567 1.02 160.833C0.953333 157.167 1.05333 153.433 1.32 149.633C1.52 145.9 1.85333 142.133 2.32 138.333C2.78667 134.533 3.38667 130.733 4.12 126.933C4.78667 123.2 5.62 119.467 6.62 115.733C7.55333 112 8.62 108.3 9.82 104.633C11.02 101.033 12.32 97.4667 13.72 93.9333C15.1867 90.4 16.72 86.9333 18.32 83.5333C19.9867 80.2 21.7533 76.9333 23.62 73.7333C25.4867 70.5333 27.42 67.4333 29.42 64.4333C31.4867 61.5 33.6533 58.6333 35.92 55.8333C38.1867 53.1 40.52 50.4333 42.92 47.8333C45.32 45.3 47.7867 42.8667 50.32 40.5333C52.92 38.2 55.5533 35.9667 58.22 33.8333C60.8867 31.7 63.62 29.6667 66.42 27.7333C69.22 25.8667 72.0867 24.0667 75.02 22.3333C77.8867 20.6 80.7867 19 83.72 17.5333C86.72 16 89.72 14.6 92.72 13.3333C95.7867 12 98.8533 10.8 101.92 9.73333C104.987 8.66667 108.053 7.7 111.12 6.83333C114.187 5.9 117.253 5.1 120.32 4.43333C123.453 3.76667 126.553 3.2 129.62 2.73333C132.687 2.26667 135.72 1.9 138.72 1.63333C141.787 1.36667 144.82 1.16667 147.82 1.03333C150.753 0.966667 153.687 1 156.62 1.13333C159.553 1.26667 162.453 1.46667 165.32 1.73333C168.187 2.06667 171.02 2.46667 173.82 2.93333C176.553 3.46667 179.287 4.03333 182.02 4.63333C184.753 5.3 187.42 6.03333 190.02 6.83333C192.62 7.63333 195.187 8.53333 197.72 9.53333C200.253 10.4667 202.753 11.5 205.22 12.6333C207.62 13.7667 210.02 14.9333 212.42 16.1333C214.753 17.4 217.02 18.7333 219.22 20.1333C221.42 21.4667 223.587 22.9 225.72 24.4333C227.853 25.9 229.92 27.4667 231.92 29.1333C233.92 30.7333 235.853 32.3667 237.72 34.0333C239.587 35.7667 241.387 37.5333 243.12 39.3333C244.853 41.1333 246.52 43 248.12 44.9333C249.72 46.8 251.253 48.7333 252.72 50.7333C254.187 52.7333 255.587 54.7667 256.92 56.8333C258.253 58.9 259.52 61.0333 260.72 63.2333C261.987 65.3667 263.187 67.5667 264.32 69.8333C265.453 72.1 266.52 74.4333 267.52 76.8333C268.587 79.1667 269.587 81.5667 270.52 84.0333C271.453 86.5 272.387 89.0333 273.32 91.6333C274.187 94.2333 275.02 96.8667 275.82 99.5333C276.687 102.2 277.487 104.933 278.22 107.733C279.02 110.533 279.787 113.4 280.52 116.333C281.253 119.267 281.987 122.233 282.72 125.233C283.387 128.3 284.087 131.4 284.82 134.533C285.487 137.733 286.187 140.967 286.92 144.233C287.587 147.5 288.253 150.867 288.92 154.333C289.587 157.733 290.287 161.2 291.02 164.733C291.687 168.267 292.353 171.833 293.02 175.433C293.687 179.1 294.353 182.767 295.02 186.433C295.62 190.1 296.22 193.767 296.82 197.433C297.353 201.1 297.887 204.767 298.42 208.433C298.887 212.1 299.287 215.733 299.62 219.333C300.02 222.933 300.32 226.467 300.52 229.933C300.787 233.467 300.953 236.9 301.02 240.233C301.087 243.567 301.053 246.833 300.92 250.033C300.787 253.233 300.553 256.3 300.22 259.233C299.953 262.233 299.52 265.1 298.92 267.833C298.387 270.5 297.72 273.067 296.92 275.533C296.12 277.933 295.187 280.2 294.12 282.333C293.053 284.467 291.82 286.4 290.42 288.133C289.02 289.867 287.487 291.433 285.82 292.833Z" fill="white" stroke="black"/>
</svg>
